HIERARCHY
ROOT Hips
{
	OFFSET 0.00000 0.00000 0.00000
	CHANNELS 6 Xposition Yposition Zposition Zrotation Yrotation Xrotation 
	JOINT LHipJoint
	{
		OFFSET 0 0 0
		CHANNELS 3 Zrotation Yrotation Xrotation
		JOINT LeftHip
		{
			OFFSET 1.58895 -1.83665 0.71753
			CHANNELS 3 Zrotation Yrotation Xrotation
			JOINT LeftKnee
			{
				OFFSET 2.50528 -6.88321 0.00000
				CHANNELS 3 Zrotation Yrotation Xrotation
				JOINT LeftAnkle
				{
					OFFSET 2.63244 -7.23257 0.00000
					CHANNELS 3 Zrotation Yrotation Xrotation
					JOINT LeftToe
					{
						OFFSET 0.23691 -0.65090 1.72750
						CHANNELS 3 Zrotation Yrotation Xrotation
						End Site
						{
							OFFSET 0.00000 -0.00000 0.92561
						}
					}
				}
			}
		}
	}
	JOINT RHipJoint
	{
		OFFSET 0 0 0
		CHANNELS 3 Zrotation Yrotation Xrotation
		JOINT RightHip
		{
			OFFSET -1.51435 -1.83665 0.71753
			CHANNELS 3 Zrotation Yrotation Xrotation
			JOINT RightKnee
			{
				OFFSET -2.54551 -6.99375 0.00000
				CHANNELS 3 Zrotation Yrotation Xrotation
				JOINT RightAnkle
				{
					OFFSET -2.66027 -7.30903 0.00000
					CHANNELS 3 Zrotation Yrotation Xrotation
					JOINT RightToe
					{
						OFFSET -0.22981 -0.63138 2.03959
						CHANNELS 3 Zrotation Yrotation Xrotation
						End Site
						{
							OFFSET -0.00000 -0.00000 1.07060
						}
					}
				}
			}
		}
	}
	JOINT lowerback
	{
		OFFSET 0 0 0
		CHANNELS 3 Zrotation Yrotation Xrotation
		JOINT Chest
		{
			OFFSET -0.02651 1.86275 -0.11152
			CHANNELS 3 Zrotation Yrotation Xrotation
			JOINT Chest2
			{
				OFFSET 0.01019 1.86224 0.04087
				CHANNELS 3 Zrotation Yrotation Xrotation
				JOINT lowerneck
				{
					OFFSET 0 0 0
					CHANNELS 3 Zrotation Yrotation Xrotation
					JOINT Neck
					{
						OFFSET -0.01926 1.80512 0.08867
						CHANNELS 3 Zrotation Yrotation Xrotation
						JOINT Head
						{
							OFFSET 0.05516 1.76451 -0.38475
							CHANNELS 3 Zrotation Yrotation Xrotation
							End Site
							{
								OFFSET 0.01592 1.82587 -0.14001
							}
						}
					}
				}
				JOINT LeftCollar
				{
					OFFSET 0 0 0
					CHANNELS 3 Zrotation Yrotation Xrotation
					JOINT LeftShoulder
					{
						OFFSET 3.47116 1.51376 0.14491
CHANNELS 3 Zrotation Xrotation Yrotation
						JOINT LeftElbow
						{
OFFSET 0 -4.780950 0.000000
CHANNELS 3 Zrotation Xrotation Yrotation
							JOINT LeftWrist
							{
OFFSET 0 -3.586150 -0.000000
CHANNELS 3 Zrotation Xrotation Yrotation
								JOINT lhand
								{
									OFFSET 0 0 0
CHANNELS 3 Zrotation Xrotation Yrotation
									JOINT LFingers
									{
OFFSET 0 -0.659810 0.000000
CHANNELS 3 Zrotation Xrotation Yrotation
										End Site
										{
OFFSET 0 -0.531960 0.000000
										}
									}
								}
								JOINT LThumb
								{
OFFSET 0 0.000000 0.000000
CHANNELS 3 Zrotation Xrotation Yrotation
									End Site
									{
OFFSET 0 -0.540080 0.540080
									}
								}
							}
						}
					}
				}
				JOINT RightCollar
				{
					OFFSET 0 0 0
					CHANNELS 3 Zrotation Yrotation Xrotation
					JOINT RightShoulder
					{
						OFFSET -3.31725 1.61216 0.35156
CHANNELS 3 Zrotation Xrotation Yrotation
						JOINT RightElbow
						{
OFFSET 0 -4.489130 0.000000
CHANNELS 3 Zrotation Xrotation Yrotation
							JOINT RightWrist
							{
OFFSET 0 -3.705100 0.000000
CHANNELS 3 Zrotation Xrotation Yrotation
								JOINT rhand
								{
									OFFSET 0 0 0
CHANNELS 3 Zrotation Xrotation Yrotation
									JOINT RFingers
									{
OFFSET 0 -0.449140 0.000000
CHANNELS 3 Zrotation Xrotation Yrotation
										End Site
										{
OFFSET 0 -0.362110 0.000000
										}
									}
								}
								JOINT RThumb
								{
OFFSET 0 0.000000 0.000000
CHANNELS 3 Zrotation Xrotation Yrotation
									End Site
									{
OFFSET 0 -0.367630 0.367630
									}
								}
							}
						}
					}
				}
			}
		}
	}
}
MOTION
Frames: 5
Frame Time: 0.008333333333333333
-0.537230 18.737694 6.064364 -4.339155 -2.791037 3.559896 0.000000 0.000000 0.000000 -9.998438 -5.740301 -4.843368 1.550170 7.858557 22.285225 1.647991 3.913751 -25.922714 8.314754 -16.345917 -53.688550 0.000000 0.000000 0.000000 0.000000 0.000000 0.000000 0.000000 0.000000 0.000000 0.000000 0.000000 0.000000 0.000000 0.000000 0.000000 -0.047911 -2.555602 6.079724 1.874272 -3.366535 1.546888 2.201769 -1.681019 -1.694006 -1.623874 -3.250486 -11.136602 0.393515 -4.761200 35.965754 -0.286955 -2.290199 14.205457 0.000000 0.000000 0.000000 3.770470 -25.965860 -77.806597 103.136111 -59.333855 71.350480 13.904351 -28.892675 35.661648 0.000000 0.000000 0.000000 -7.125000 0.000000 0.000000 -10.443334 -5.956684 -11.657114 0.000000 0.000000 0.000000 -27.626402 6.227477 41.097220 -142.948537 -46.222652 -103.722747 -20.405791 0.722320 29.321292 0.000000 0.000000 0.000000 7.125000 0.000000 0.000000 12.340091 60.489503 -4.702609
-0.542856 18.738204 6.061874 -4.341175 -2.836785 3.612859 0.000000 0.000000 0.000000 -9.977549 -5.760515 -4.889813 1.547508 7.852090 22.265771 1.651738 3.944913 -25.965035 8.300703 -16.336000 -53.638507 0.000000 0.000000 0.000000 0.000000 0.000000 0.000000 0.000000 0.000000 0.000000 0.000000 0.000000 0.000000 0.000000 0.000000 0.000000 0.100046 -2.338688 6.232834 1.831085 -3.064197 1.345523 2.066880 -1.527253 -2.008269 -1.549657 -3.219446 -10.855380 0.449725 -4.752566 36.000399 -0.269386 -2.269148 14.157231 0.000000 0.000000 0.000000 5.574687 -25.444301 -76.539976 106.375146 -58.959226 74.131416 14.071785 -29.350071 35.752886 0.000000 0.000000 0.000000 -7.125000 0.000000 0.000000 -10.363827 -6.075168 -11.584655 0.000000 0.000000 0.000000 -27.950245 5.100256 42.482942 -143.065483 -46.145064 -103.807223 -20.270344 0.760123 29.597331 0.000000 0.000000 0.000000 7.125000 0.000000 0.000000 12.668540 60.729869 -4.903334
-0.549233 18.739485 6.056367 -4.423751 -2.774374 3.688455 0.000000 0.000000 0.000000 -9.836832 -5.732301 -5.021205 1.543812 7.843065 22.238560 1.634771 3.968823 -25.854171 8.335968 -16.360875 -53.764016 0.000000 0.000000 0.000000 0.000000 0.000000 0.000000 0.000000 0.000000 0.000000 0.000000 0.000000 0.000000 0.000000 0.000000 0.000000 0.114938 -2.118876 6.105788 1.952995 -2.769550 1.333250 2.156259 -1.380631 -1.954524 -1.766666 -3.263334 -10.706029 0.650058 -4.821811 35.916280 -0.155466 -2.299689 14.100196 0.000000 0.000000 0.000000 7.203610 -25.253930 -75.275390 109.284345 -58.543500 76.618682 14.393152 -29.846857 35.760283 0.000000 0.000000 0.000000 -7.125000 0.000000 0.000000 -10.191945 -6.138321 -11.396454 0.000000 0.000000 0.000000 -28.482207 3.590177 43.644719 -143.005241 -46.185105 -103.763747 -19.850587 0.553236 29.894458 0.000000 0.000000 0.000000 7.125000 0.000000 0.000000 13.331042 60.921168 -5.224971
-0.555761 18.742991 6.044311 -4.372322 -2.792188 3.751507 0.000000 0.000000 0.000000 -9.867600 -5.814316 -5.095540 1.537947 7.828840 22.195404 1.626363 4.102821 -25.861019 8.332398 -16.358383 -53.751176 0.000000 0.000000 0.000000 0.000000 0.000000 0.000000 0.000000 0.000000 0.000000 0.000000 0.000000 0.000000 0.000000 0.000000 0.000000 0.134588 -1.882570 6.148032 1.903806 -2.452783 1.250606 2.074706 -1.221500 -2.077493 -1.541759 -3.294615 -10.629015 0.538803 -4.878560 35.919754 -0.245543 -2.306179 14.073822 0.000000 0.000000 0.000000 9.031370 -24.991369 -73.908327 111.922373 -58.102064 78.864161 14.818119 -30.397199 35.810037 0.000000 0.000000 0.000000 -7.125000 0.000000 0.000000 -9.969433 -6.262005 -11.159364 0.000000 0.000000 0.000000 -28.709371 2.240516 44.968854 -142.949661 -46.221916 -103.723640 -19.985757 0.466877 29.905214 0.000000 0.000000 0.000000 7.125000 0.000000 0.000000 13.187618 60.964485 -5.180982
-0.559364 18.746514 6.033936 -4.156829 -2.886471 3.754837 0.000000 0.000000 0.000000 -10.120233 -5.892780 -5.091614 1.535875 7.823850 22.180349 1.617479 4.338362 -25.916800 8.356502 -16.375319 -53.836947 0.000000 0.000000 0.000000 0.000000 0.000000 0.000000 0.000000 0.000000 0.000000 0.000000 0.000000 0.000000 0.000000 0.000000 0.000000 0.058822 -1.639112 6.294174 1.755975 -2.133697 1.151204 1.947775 -1.060349 -2.275005 -1.393506 -3.310602 -10.687707 0.460975 -4.910157 36.096142 -0.310469 -2.305062 14.160912 0.000000 0.000000 0.000000 10.934082 -24.547991 -72.394924 114.392471 -57.624491 80.955597 15.096511 -30.880977 35.907121 0.000000 0.000000 0.000000 -7.125000 0.000000 0.000000 -9.831872 -6.407528 -11.023036 0.000000 0.000000 0.000000 -28.808588 0.730216 46.436456 -142.646808 -46.420849 -103.504463 -20.705929 0.657849 30.025518 0.000000 0.000000 0.000000 7.125000 0.000000 0.000000 12.462622 61.261188 -4.978153
